<svg xmlns:svg="http://www.w3.org/2000/svg" xmlns="http://www.w3.org/2000/svg" version="1.1" width="2000" height="2000" viewBox="0 0 2000 2000"><path d="m1143.4 1975.3c0 0-28.3-154.3-174.6-153.3-135.3 0.9-183.3 140.9-183.3 140.9l-117.4-33.5c0 0 39.1-142.3-77.7-207.8-101.7-57.1-229.1 30.3-229.1 30.3l-54.8-49.4c0 0 89.4-124.2 30.7-214.7-76.9-118.5-232.5-76.9-232.5-76.9l-29.9-67.6c0 0 136.9-70.8 116.8-196.5C172.2 1024.7 12.3 994.1 12.3 994.1l4.5-72.8c0 0 156.8-4.8 188.5-128.9 31.1-121.9-96.5-215.1-96.5-215.1l32.7-64.8c0 0 151.9 55.7 225.5-38.1 71.8-91.5 4.6-233.7 4.6-233.7l70.1-54.1c0 0 108.5 113.7 233.7 59.9 107.9-46.4 93.2-205.5 93.2-205.5l86.8-16.9c0 0 45.6 151.9 177.3 154C1161.9 179.9 1233.1 49.7 1233.1 49.7l98.1 21.7c0 0-25.6 150 88.6 213.6 112.1 62.5 219-36.6 219-36.6l54.1 49.8c0 0-91.3 140.8-14.8 238.1 72.5 92.3 222.3 54.2 222.3 54.2l23.6 66.2c0 0-122.7 78.4-98.2 203.7 21.2 108.7 162.6 146.6 162.6 146.6l-5.3 73.5c0 0-152.2-2.8-187.6 108.2-43.2 135.4 95.2 234.3 95.2 234.3l-32.7 64.8c0 0-140.1-58.4-219 28.4-94.4 103.8-11.1 243.8-11.1 243.8l-70.8 53.9c0 0-93.9-116.4-226.9-62-121.5 49.7-99.1 206-99.1 206zm-100.5-275.8c440.1-35.1 699.3-425.5 663.4-778.1-37.1-364.3-363.8-652.2-702.5-641.7-411 12.7-729 327.4-721 716.9 9.9 478.8 415.3 730.5 760.1 702.9zm44.4-56.5c0 0-18.6-101.6-114.9-101-89.1 0.6-120.7 92.7-120.7 92.7l-77.3-22.1c0 0 25.7-93.7-51.1-136.8-67-37.6-150.9 20-150.9 20l-36.1-32.5c0 0 58.9-81.8 20.2-141.3-50.6-78.1-153.1-50.7-153.1-50.7l-19.7-44.5c0 0 90.1-46.6 76.9-129.4C447.8 1017.1 342.6 997 342.6 997l2.9-47.9c0 0 103.2-3.2 124.1-84.9 20.5-80.2-63.5-141.6-63.5-141.6l21.6-42.7c0 0 100 36.7 148.4-25.1 47.2-60.3 3-153.9 3-153.9l46.2-35.7c0 0 71.5 74.9 153.9 39.4 71-30.5 61.3-135.3 61.3-135.3l57.2-11.1c0 0 30 100 116.7 101.4 85 1.3 131.9-84.4 131.9-84.4l64.6 14.3c0 0-16.8 98.8 58.3 140.6 73.8 41.1 144.2-24.1 144.2-24.1l35.6 32.8c0 0-60.1 92.7-9.8 156.8 47.7 60.8 146.4 35.7 146.4 35.7l15.5 43.6c0 0-80.8 51.6-64.7 134.1 14 71.6 107 96.5 107 96.5l-3.5 48.4c0 0-100.2-1.9-123.6 71.2-28.5 89.2 62.7 154.2 62.7 154.2l-21.5 42.7c0 0-92.2-38.4-144.2 18.7-62.1 68.3-7.3 160.5-7.3 160.5l-46.6 35.5c0 0-61.8-76.6-149.4-40.8-80 32.7-65.2 135.6-65.2 135.6zm-66.2-181.6c289.8-23.1 460.5-280.2 436.8-512.3C1433.5 709.3 1218.4 519.8 995.4 526.6 724.8 535 515.4 742.2 520.7 998.7c6.5 315.3 273.4 481 500.5 462.8zm-120.2-51.2c-43.8-25.3-37.4-100.4-78.5-129.8-46.8-33.4-124.9 0.7-168.6-36.6-10.9-9.3-14.7-25.7-15.6-40-2.9-47.6 44.3-91.8 35.6-138.7-9.5-51.3-80.5-76.4-90.8-127.6-2.6-13.1 1-28.3 8.9-39.2 31.1-42.8 107.3-37 136.4-81.2 28.1-42.7-6.3-108.1 20-151.9 51.4-59.9 143.1 14.7 192.9 12.7 0.5 0 0.9-0.2 1.3-0.5 42-22.8 68.6-72.2 114.2-86.5 9.1-2.9 20.4-3.6 28.7 1.1 47.9 27.3 43.6 108.7 89.8 138.8 44.8 29.1 114.9-6.2 158.3 24.9 8.7 6.3 13.7 17.9 15 28.5 6.1 50.7-46.1 98.5-36.9 148.7 9.6 52.5 80.6 79.4 90.9 131.8 2.5 12.8-0.7 27.6-8.3 38.2-29.6 41.5-102 37.1-130.7 79.2-27 39.6-3.3 98.6-24.4 141.5-6.6 13.5-16.1 28.8-30.5 33.1-48.6 14.6-97.8-46-147.7-37-52.6 9.5-80.8 75.5-132 90.9-8.9 2.7-19.9 4.1-28-0.5zm112.4-206.7c69.4-8.1 125-41.2 161.1-111.7 24.5-48.9 28.4-103.2 11.2-155.1-4.7-14.1-15.8-37.1-23.3-48-34.5-50.7-86.5-82.7-145.7-89.9-50.9-6.1-102.7 7.7-145.2 38.7-17 13.5-30.6 26.3-42.2 42.2-58.9 80.4-52.3 188.7 15.8 261.1 42.5 45.2 107 69.2 168.3 62.7z" fill="#555"/></svg>