<svg xmlns:svg="http://www.w3.org/2000/svg" xmlns="http://www.w3.org/2000/svg" version="1.1" width="2000" height="2000" viewBox="0 0 2000 2000"><path d="m975.2 1124.9-30.6-9.3-416.8 721.8-32.7-18.4 417.4-723.5-20.3-22.7-725.1 418.2-18.4-32.7 728.2-420.6-4.2-27.4-844.5 0 0-37.6 848.7 0 8.8-22.4-737-425.6 19-32.3 738.1 426.2 17.2-13-427.5-741.1 32.3-19 428.2 743.1 19.3-4.6 0.5-858.9 37.6 0 0.5 858.9 18.8 3.2 428.7-741.7 32.3 19-427.5 741.1 16.4 13.3 739.5-426.9 18.4 32.6-737 425.6 8.8 22.4 848.7 0 0 37.6-844.5 0-4.2 27.4 728.3 420.7-18.4 32.7-725-418.1-20.4 22.7 417.4 723.5-32.7 18.4-416.9-721.8-30.6 9.3-0.5 833-37.6 0zm34.3-50.8c32.2-6.8 56.3-36.7 56.3-69.7 0-21.5-11-43.8-27.9-56.5-22-16.6-50.4-19.4-74.6-7.4-15.1 7.5-25.3 17.7-32.8 32.8-23.2 46.7 11.1 102 63.4 102.4 4.4 0 11.4-0.6 15.5-1.5z" fill="#555"/></svg>