<svg xmlns:svg="http://www.w3.org/2000/svg" xmlns="http://www.w3.org/2000/svg" version="1.1" width="1918" height="1709" viewBox="0 0 1918 1709"><path d="m721.2 1640.2c-23.6-3.3-36.3 44.6-59.5 39.4-21.8-4.9-13.5-50.4-34.7-57.4-24.7-8.1-48 39.2-72.2 29.7-21.2-8.3-7.7-53-28.6-62.1-22.8-9.9-49.3 35.8-70.9 23.4-18.9-10.8 3.8-51.2-14-63.8-21.3-15-57.2 25.9-77.5 9.6-17.4-13.9 10.2-51.5-6.3-66.5-19.4-17.6-59.8 18.6-78.4 0.3-15.9-15.7 14.8-50.9-0.6-67.2-17-18-58.3 14.2-74-4.9-14.9-18.1 23-50.7 9.3-69.7-14.2-19.6-58.2 7-71.5-13.3-13.1-20 27.8-49.1 16-69.9-11.8-20.7-56.2-1.2-67.9-21.9-12.8-22.6 30-53.1 17.5-75.9-9.5-17.3-48.6-1.5-55.8-19.9-8.7-22.1 38.7-40.3 32.7-63.2-5.9-22.5-53.3-15.5-58.5-38.2-5.5-24.2 43.5-39.3 38.8-63.7C61.2 965 18.3 968.4 15.9 948 13 923.9 63.8 916 62.3 891.7 61.1 871.3 17.7 870.1 17.9 849.7c0.2-24.9 52.9-25.8 55-50.7 1.7-20.4-40.9-28.2-37.6-48.4 3.7-22.5 50.9-15.8 57.2-37.8 5.9-20.5-33.9-38.2-26.5-58.1 7.9-21 52.2-7.3 61.1-27.8 8.4-19.2-29.4-41.1-19.8-59.7 10.3-19.9 52.5-0.7 64.4-19.8 11-17.8-22.2-44.8-10.1-61.9 12.7-17.9 50.9 5.3 64.8-11.7 12.9-15.8-15.1-45.9-1.5-61.1 15-16.8 51.2 9.8 67.2-6 14-13.8-8.8-45.8 6.1-58.6 17-14.6 49.4 17 67.2 3.2 15.2-11.8-4.2-45.8 11.7-56.5 18-12 45 22.9 63.9 12.2 16.4-9.3 2.9-44.5 19.6-53.1 20.3-10.5 45.2 27 66.2 18 16.7-7.2 8.8-41.8 25.8-48.2 20.8-7.9 41.5 30.1 62.7 23.3 17-5.5 12.6-39.8 29.8-44.4 22.5-6.1 40 34.9 62.9 30.6 16.8-3.2 17.7-36.1 34.7-37.7 20.8-2.1 29.7 37 50.6 37 18.9 0 27.1-35.1 45.9-33.4 20.3 1.8 22.3 41.2 42.5 44 19.1 2.7 31.1-32.6 50.1-28.9 20 3.9 18 42.6 37.6 48.2 19.2 5.5 37.7-27.5 56.5-20.4 17.8 6.7 10.4 42.1 27.7 50 18.2 8.2 40.9-22.3 58.5-12.9 16.2 8.7 4.6 41.1 19.9 51.3 18.1 12 47.7-14.7 65.1-1.9 15.9 11.7 1.3 43.9 16 57.2 5.1 4.6 20.3 3.5 20.3 3.5 0 0 327.6-231.9 495-349.8 84-60.1 211.7 112 152.6 163.5l-478.2 357.2c0 0 7.1 13.7 11 32.8 2.7 13.5 32.1 0.2 39.4 11.9 11.1 17.7-19.9 43.5-9.9 61.8 8.8 16.2 42.8 5.5 50.6 22.2 9.1 19.4-25.9 41.8-18 61.8 7 17.9 44.1 11.2 49.5 29.6 5.8 20.1-32.7 35.5-28.3 56 4.2 19.4 44.6 17.7 46.4 37.5 1.6 18.4-36.2 23.4-36.3 41.8-0.1 21.2 39.6 27.3 41.2 48.4 1.7 24.2-40.3 37.4-38.7 61.6 1.1 16.8 34.3 22.1 32.4 38.8-2.3 19.9-43.6 16.5-48 36.1-4.4 20.1 33.8 34.4 29.1 54.4-4.7 19.8-43.3 16-49.9 35.3-6.8 19.8 27.7 41.5 18.2 60.1-9.3 18-47.9 1.7-57.6 19.5-10.3 19 27 44.3 16 62.9-11.2 18.9-51.1-1.6-63.8 16.3-12.7 17.9 19.5 48.6 5.7 65.6-13.6 16.6-49.5-8.6-64 7.3-14.8 16.3 14.9 51.2-1.3 66.1-16 14.8-48.1-17.4-65.1-3.9-17.7 14.1 6.7 53.3-11.3 67.1-19 14.6-52.1-20.9-71.5-7-16.8 12 3.5 49.8-14.2 60.4-20.8 12.4-48.5-29.8-70.1-18.8-19.2 9.8-3.2 52.3-23.2 60.4-21.5 8.8-41.2-36.1-63.4-29.2-21.4 6.7-12.3 52.4-34.1 58-22.9 5.8-37.5-40.5-60.8-36.3-22.3 4-20.1 51.4-42.7 53-23 1.6-27.4-47-50.4-47.3-24.1-0.3-29.9 49.8-54 48.1-22.8-1.5-21.9-48.8-44.5-52zm165.7-120.3c58.1-30.3 38.2-95 25.4-131.2-31.5-89.4-62.1-177.2-107.5-259-24.2-45.2-60.8-49.9-92.5-34.5-103.8 60.2-183.8 108.9-262.8 180.4-42 35.3-55.9 84.8-17.2 125.5 101.9 82.5 320.9 163.8 454.7 118.9zm307.2-126.8c101.8-82.1 183.2-204.5 193.8-332.6 5.8-35.4-15-83.1-51.9-86.5-86.8-8.5-183.8-9.9-265.7-1.4-52.8 3.1-87.6 26.4-87.6 68.9 4 77.2 17.7 248.8 94.2 346 33.6 40.8 80.1 31.5 117.1 5.5zM316.9 1178.7c104.5-44.3 196-141.9 265.7-233.5 31.5-36.9 15.1-75.6-10.2-100-69.1-48.7-204.7-147.2-292-172.6-29.5-3.8-54.1 17.4-66.3 42.2-26 56.3-66.8 306.3 16.4 433.5 22.4 26.8 52.7 40.6 86.4 30.5zM1342 811.6c40.4-40 9.7-104.9-17.9-142.6-39.4 39.3-93.4 70.3-84.9 124.3 7.7 51 75.8 38.8 102.8 18.3zM775.8 665.3C810.1 588.5 857 495.6 860.5 413.4 859.5 388.1 851.8 366.9 829.6 352.4 727.1 313.7 460.2 363.1 381.1 491.2c-35.5 71.9 218.2 178.3 307.2 199.5 36.1 7.5 67.8 3 87.5-25.4zM1048 513.6c34.9-9.7 67.1-33.9 91.8-53.1-24.4-25-61.7-43.9-98.9-36.4-30.6 6.9-63.2 34.8-56.6 73.3 5.7 25.8 48 19.9 63.8 16.1zm723.7-306.4c36.5-5.8 52.5-32.6 49.4-65.1-3.1-31.8-26.5-53.4-59.3-50.9-32.6 2.5-56.4 30.3-52.5 63.7 4 34.5 30 57.5 62.4 52.4z" fill="#555"/></svg>