<?xml version="1.0" encoding="UTF-8"?>
<svg width="1934px" height="1935px" viewBox="0 0 1934 1935" version="1.1" xmlns="http://www.w3.org/2000/svg" xmlns:xlink="http://www.w3.org/1999/xlink">
    <!-- Generator: Sketch 46 (44423) - http://www.bohemiancoding.com/sketch -->
    <title>Untitled</title>
    <desc>Created with Sketch.</desc>
    <defs></defs>
    <g id="Page-1" stroke="none" stroke-width="1" fill="none" fill-rule="evenodd">
        <g id="bike-spokes" transform="translate(0.000000, 1.000000)" fill-rule="nonzero" fill="#555555">
            <path d="M947.2,1099.9 L916.6,1090.6 L499.8,1812.4 L467.1,1794 L884.5,1070.5 L864.2,1047.8 L139.1,1466 L120.7,1433.3 L848.9,1012.7 L844.7,985.3 L0.2,985.3 L0.2,947.7 L848.9,947.7 L857.7,925.3 L120.7,499.7 L139.7,467.4 L877.8,893.6 L895,880.6 L467.5,139.5 L499.8,120.5 L928,863.6 L947.3,859 L947.8,0.1 L985.4,0.1 L985.9,859 L1004.7,862.2 L1433.4,120.5 L1465.7,139.5 L1038.2,880.6 L1054.6,893.9 L1794.1,467 L1812.5,499.6 L1075.5,925.2 L1084.3,947.6 L1933,947.6 L1933,985.2 L1088.5,985.2 L1084.3,1012.6 L1812.6,1433.3 L1794.2,1466 L1069.2,1047.9 L1048.8,1070.6 L1466.2,1794.1 L1433.5,1812.5 L1016.6,1090.7 L986,1100 L985.5,1933 L947.9,1933 L947.2,1099.9 Z M981.5,1049.1 C1013.7,1042.3 1037.8,1012.4 1037.8,979.4 C1037.8,957.9 1026.8,935.6 1009.9,922.9 C987.9,906.3 959.5,903.5 935.3,915.5 C920.2,923 910,933.2 902.5,948.3 C879.3,995 913.6,1050.3 965.9,1050.7 C970.3,1050.7 977.3,1050.1 981.4,1049.2 L981.5,1049.1 Z" id="Shape"></path>
        </g>
        <ellipse id="Oval" stroke="#979797" fill="#9013FE" cx="966.5" cy="96.5" rx="93.5" ry="95.5"></ellipse>
    </g>
</svg>