<?xml version="1.0" standalone="no"?>
<!DOCTYPE svg PUBLIC "-//W3C//DTD SVG 20010904//EN"
 "http://www.w3.org/TR/2001/REC-SVG-20010904/DTD/svg10.dtd">
<svg version="1.0" xmlns="http://www.w3.org/2000/svg"
 width="700.000000pt" height="700.000000pt" viewBox="0 0 700.000000 700.000000"
 preserveAspectRatio="xMidYMid meet">
<metadata>
Created by potrace 1.11, written by Peter Selinger 2001-2013
</metadata>
<g transform="translate(0.000000,700.000000) scale(0.100000,-0.100000)"
fill="#000000" stroke="none">
<path d="M2838 6886 l-148 -29 -1 -91 c0 -50 -2 -98 -4 -106 -1 -8 -6 -33 -9
-55 -42 -261 -163 -418 -376 -491 -86 -30 -280 -27 -380 5 -111 36 -259 121
-335 193 -16 15 -36 27 -42 26 -7 -2 -64 -43 -127 -91 l-114 -88 33 -95 c19
-52 32 -94 30 -94 -2 0 3 -24 11 -52 23 -89 28 -262 10 -347 -45 -212 -187
-359 -391 -405 -117 -26 -364 -9 -478 33 -20 8 -27 -1 -78 -103 l-56 -111 78
-77 c213 -211 299 -420 264 -643 -15 -103 -66 -198 -151 -281 -108 -107 -267
-178 -449 -200 -27 -3 -54 -9 -58 -13 -4 -4 -10 -39 -13 -77 -3 -38 -6 -90 -8
-116 -5 -54 1 -61 67 -77 77 -19 217 -83 296 -136 267 -179 340 -475 185 -752
-45 -82 -172 -211 -266 -272 l-66 -42 49 -111 c26 -61 53 -114 60 -118 6 -4
26 -4 45 2 54 14 233 15 318 1 262 -44 467 -221 507 -439 28 -149 -24 -346
-147 -562 l-19 -33 50 -45 c68 -62 107 -96 127 -112 14 -11 24 -8 66 18 171
105 428 162 592 131 148 -28 312 -151 377 -282 55 -112 67 -169 66 -314 -1
-72 -3 -143 -5 -159 l-3 -30 200 -58 c110 -31 201 -58 202 -58 1 0 12 24 26
53 142 309 423 477 722 432 136 -21 282 -107 360 -213 46 -61 111 -191 131
-258 8 -30 20 -54 25 -54 5 0 67 12 137 26 70 14 134 27 142 28 12 2 15 22 16
97 1 121 10 186 40 280 62 196 207 329 413 378 90 22 210 22 296 1 115 -29
258 -112 347 -201 l47 -47 121 91 c66 50 120 96 120 102 0 7 -13 42 -30 78
-70 154 -96 346 -66 485 43 204 183 366 365 423 123 38 307 33 470 -14 l76
-22 57 111 56 112 -68 61 c-131 117 -239 286 -276 431 -32 125 -15 290 42 402
86 170 300 284 568 302 26 2 49 6 52 9 5 5 17 138 18 211 1 39 0 40 -54 61
-259 101 -430 252 -493 434 -27 78 -31 237 -8 322 19 71 68 173 109 228 60 80
156 177 198 199 13 7 24 18 24 25 0 7 -18 59 -39 117 -42 117 -32 110 -141 96
-66 -8 -221 -9 -276 -1 -313 46 -504 247 -505 530 0 70 5 105 25 203 15 70 98
266 118 278 24 15 -8 54 -136 168 l-39 35 -63 -45 c-127 -91 -305 -154 -431
-154 -74 0 -179 26 -249 61 -117 59 -201 144 -261 262 -56 111 -75 201 -77
359 -1 128 -2 137 -21 143 -11 3 -63 15 -115 26 -52 11 -104 23 -115 25 -86
21 -90 20 -131 -42 -110 -166 -310 -319 -474 -363 -117 -31 -236 -29 -346 4
-59 19 -74 26 -149 73 -98 63 -227 229 -282 364 -13 35 -28 65 -31 68 -4 3
-73 -8 -154 -24z m987 -879 c376 -53 696 -175 1008 -384 481 -321 839 -781
1020 -1313 36 -104 65 -207 73 -255 3 -22 8 -43 10 -46 5 -8 30 -183 39 -268
9 -83 9 -285 1 -381 -61 -689 -385 -1302 -932 -1760 -52 -44 -197 -145 -274
-191 -517 -312 -1182 -436 -1737 -324 -13 3 -35 7 -50 10 -16 3 -50 11 -78 17
-27 7 -52 13 -55 13 -119 27 -322 105 -485 186 -184 92 -173 86 -290 164 -522
348 -892 890 -1020 1495 -48 226 -59 336 -60 580 0 220 6 298 36 446 5 28 12
64 15 80 10 59 76 274 110 360 207 515 583 944 1079 1229 98 56 227 118 345
165 95 38 314 107 369 116 14 3 34 7 43 10 10 3 28 7 40 9 166 28 213 35 273
41 39 4 72 8 73 9 6 6 405 -2 447 -8z"/>
<path d="M3034 5726 l-91 -20 -2 -70 c-3 -151 -60 -291 -144 -357 -151 -120
-395 -93 -571 62 l-36 31 -75 -57 c-42 -31 -77 -61 -80 -65 -3 -4 2 -27 10
-51 32 -90 44 -165 42 -264 -2 -86 -6 -108 -29 -155 -50 -101 -128 -162 -239
-185 -58 -12 -166 -12 -229 1 -19 4 -40 8 -46 10 -6 1 -20 5 -30 8 -16 5 -26
-8 -55 -67 l-37 -73 55 -55 c65 -64 105 -120 139 -194 31 -66 35 -85 35 -157
0 -147 -70 -257 -208 -326 -58 -29 -170 -62 -211 -62 -16 0 -22 -6 -23 -22 0
-13 -3 -51 -5 -85 l-6 -62 43 -11 c58 -16 145 -57 199 -93 118 -81 174 -182
173 -314 0 -64 -5 -84 -36 -146 -41 -82 -99 -148 -179 -204 l-55 -38 35 -78
c35 -77 36 -78 66 -71 112 25 279 -1 372 -57 195 -117 229 -325 93 -568 l-30
-53 58 -54 c32 -29 61 -54 66 -54 4 0 33 14 64 30 148 79 324 98 435 48 71
-33 136 -93 172 -157 43 -79 61 -212 42 -311 -4 -25 -1 -26 117 -59 67 -19
127 -36 134 -38 6 -3 26 24 45 59 40 77 147 187 210 217 158 75 341 48 454
-69 52 -53 109 -153 120 -207 3 -18 7 -33 9 -33 7 0 172 31 185 35 12 4 15 23
16 88 2 124 44 242 114 315 76 80 230 124 357 101 65 -12 179 -71 231 -119 23
-22 47 -40 52 -40 6 0 44 26 85 57 l73 57 -20 50 c-86 214 -65 397 60 522 54
54 88 71 172 89 90 18 240 5 302 -27 15 -7 24 3 55 66 l37 75 -57 58 c-68 70
-87 95 -120 153 -65 118 -74 264 -22 375 49 103 193 186 348 201 34 3 63 7 64
8 2 2 5 39 8 84 l6 82 -28 11 c-160 60 -270 148 -322 259 -22 46 -26 69 -26
145 0 83 3 96 38 169 28 59 55 97 112 154 l76 75 -21 61 c-29 88 -28 87 -89
77 -73 -11 -198 -6 -258 12 -118 35 -186 91 -234 192 -26 55 -28 68 -25 160 2
83 8 114 34 184 18 46 39 95 48 109 17 25 16 26 -46 83 l-63 57 -31 -21 c-17
-12 -33 -24 -36 -27 -23 -23 -127 -64 -189 -75 -178 -31 -349 64 -416 232 -31
79 -39 123 -39 226 0 45 -5 77 -11 78 -5 0 -17 2 -25 4 -8 2 -48 11 -89 19
-40 9 -77 18 -82 21 -4 3 -12 0 -18 -7 -6 -7 -33 -41 -61 -75 -82 -101 -206
-183 -305 -202 -46 -9 -140 -7 -184 3 -101 23 -218 130 -277 254 -22 44 -43
82 -49 84 -5 2 -51 -5 -101 -16z m656 -581 c428 -49 865 -323 1127 -706 198
-288 295 -607 288 -939 -2 -80 -6 -161 -9 -180 -3 -19 -8 -51 -11 -70 -19
-119 -75 -288 -140 -425 -185 -385 -518 -692 -907 -836 -92 -34 -251 -76 -323
-85 -27 -3 -59 -8 -70 -11 -47 -11 -323 -9 -404 4 -506 78 -913 339 -1172 751
-168 267 -245 552 -243 902 1 137 7 190 36 330 6 30 12 60 14 66 6 34 73 209
102 269 208 430 607 751 1091 880 52 14 114 28 139 31 25 3 49 7 53 10 5 2 48
7 96 10 48 4 89 7 91 9 5 5 177 -2 242 -10z"/>
<path d="M3681 4923 c-54 -18 -105 -56 -227 -170 -111 -102 -143 -123 -188
-123 -18 0 -107 25 -197 57 -231 79 -341 83 -418 14 -57 -51 -64 -85 -65 -296
-1 -174 -3 -194 -23 -236 -38 -78 -79 -106 -278 -184 -66 -26 -121 -51 -123
-56 -2 -5 -9 -9 -17 -9 -23 0 -93 -87 -101 -125 -17 -93 13 -151 156 -300 183
-190 194 -239 106 -458 -58 -142 -73 -198 -70 -255 5 -90 40 -142 119 -171 62
-23 105 -29 265 -36 250 -11 309 -54 394 -292 49 -138 104 -215 162 -226 69
-13 163 38 289 158 156 149 234 184 346 160 18 -4 85 -31 149 -60 63 -29 131
-57 150 -62 48 -13 117 -7 145 11 68 45 111 151 114 280 5 187 12 238 39 291
35 70 103 114 284 185 162 64 227 137 215 242 -9 70 -44 124 -155 239 -59 60
-110 124 -131 162 -31 58 -33 66 -28 134 4 54 16 97 51 180 90 213 99 292 40
359 -49 55 -98 65 -325 67 -161 2 -177 4 -218 26 -81 43 -117 97 -202 304 -36
89 -79 151 -128 184 -39 27 -69 28 -130 6z m-49 -735 c466 -108 693 -626 457
-1044 -65 -117 -180 -228 -289 -281 -399 -194 -864 0 -1003 418 -50 150 -42
338 22 490 134 318 478 495 813 417z"/>
</g>
</svg>
